<svg width="30" height="30" viewBox="0 0 30 30" fill="none" xmlns="http://www.w3.org/2000/svg">
<path d="M3.75 8.75C3.75 5.98858 5.98858 3.75 8.75 3.75H21.25C24.0114 3.75 26.25 5.98858 26.25 8.75V21.25C26.25 24.0114 24.0114 26.25 21.25 26.25H8.75C5.98858 26.25 3.75 24.0114 3.75 21.25V8.75Z" stroke="black" stroke-width="2"/>
<path d="M15 15C15 12.9289 16.6789 11.25 18.75 11.25H25C25.6904 11.25 26.25 11.8096 26.25 12.5V17.5C26.25 18.1904 25.6904 18.75 25 18.75H18.75C16.6789 18.75 15 17.0711 15 15Z" stroke="black" stroke-width="2"/>
<path d="M18.75 15L18.875 15" stroke="black" stroke-width="2" stroke-linecap="round"/>
</svg>
